<svg xmlns="http://www.w3.org/2000/svg" viewBox="0 0 160.96 160.96" shape-rendering="crispEdges"><g transform="translate(-10.72 171.68)"><polygon points="102.08,-166.08 118.08,-166.08 96.32,-144.32 80.32,-144.32" fill="#cc6231"/><polygon points="118.08,-150.08 118.08,-166.08 96.32,-144.32 96.32,-128.32" fill="#944723"/><polygon points="80.32,-128.32 80.32,-144.32 96.32,-144.32 96.32,-128.32" fill="#ff7a3d"/><polygon points="86.08,-150.08 118.08,-150.08 96.32,-128.32 64.32,-128.32" fill="#cc6231"/><polygon points="118.08,-134.08 118.08,-150.08 96.32,-128.32 96.32,-112.32" fill="#944723"/><polygon points="64.32,-112.32 64.32,-128.32 96.32,-128.32 96.32,-112.32" fill="#ff7a3d"/><polygon points="70.08,-134.08 118.08,-134.08 96.32,-112.32 48.32,-112.32" fill="#cc6231"/><polygon points="118.08,-118.08 118.08,-134.08 96.32,-112.32 96.32,-96.32" fill="#944723"/><polygon points="48.32,-96.32 48.32,-112.32 96.32,-112.32 96.32,-96.32" fill="#ff7a3d"/><polygon points="70.08,-118.08 134.08,-118.08 112.32,-96.32 48.32,-96.32" fill="#cc6231"/><polygon points="134.08,-102.08 134.08,-118.08 112.32,-96.32 112.32,-80.32" fill="#944723"/><polygon points="48.32,-80.32 48.32,-96.32 112.32,-96.32 112.32,-80.32" fill="#ff7a3d"/><polygon points="54.08,-102.08 150.08,-102.08 128.32,-80.32 32.32,-80.32" fill="#cc6231"/><polygon points="150.08,-86.08 150.08,-102.08 128.32,-80.32 128.32,-64.32" fill="#944723"/><polygon points="32.32,-64.32 32.32,-80.32 128.32,-80.32 128.32,-64.32" fill="#ff7a3d"/><polygon points="54.08,-86.08 86.08,-86.08 64.32,-64.32 32.32,-64.32" fill="#cc6231"/><polygon points="86.08,-70.08 86.08,-86.08 64.32,-64.32 64.32,-48.32" fill="#944723"/><polygon points="32.32,-48.32 32.32,-64.32 64.32,-64.32 64.32,-48.32" fill="#ff7a3d"/><polygon points="86.08,-86.08 118.08,-86.08 96.32,-64.32 64.32,-64.32" fill="#cca752"/><polygon points="118.08,-70.08 118.08,-86.08 96.32,-64.32 96.32,-48.32" fill="#94793b"/><polygon points="64.32,-48.32 64.32,-64.32 96.32,-64.32 96.32,-48.32" fill="#ffd166"/><polygon points="118.08,-86.08 150.08,-86.08 128.32,-64.32 96.32,-64.32" fill="#cc6231"/><polygon points="150.08,-70.08 150.08,-86.08 128.32,-64.32 128.32,-48.32" fill="#944723"/><polygon points="96.32,-48.32 96.32,-64.32 128.32,-64.32 128.32,-48.32" fill="#ff7a3d"/><polygon points="54.08,-70.08 70.08,-70.08 48.32,-48.32 32.32,-48.32" fill="#cc6231"/><polygon points="70.08,-54.08 70.08,-70.08 48.32,-48.32 48.32,-32.32" fill="#944723"/><polygon points="32.32,-32.32 32.32,-48.32 48.32,-48.32 48.32,-32.32" fill="#ff7a3d"/><polygon points="70.08,-70.08 134.08,-70.08 112.32,-48.32 48.32,-48.32" fill="#cca752"/><polygon points="134.08,-54.08 134.08,-70.08 112.32,-48.32 112.32,-32.32" fill="#94793b"/><polygon points="48.32,-32.32 48.32,-48.32 112.32,-48.32 112.32,-32.32" fill="#ffd166"/><polygon points="134.08,-70.08 150.08,-70.08 128.32,-48.32 112.32,-48.32" fill="#cc6231"/><polygon points="150.08,-54.08 150.08,-70.08 128.32,-48.32 128.32,-32.32" fill="#944723"/><polygon points="112.32,-32.32 112.32,-48.32 128.32,-48.32 128.32,-32.32" fill="#ff7a3d"/><polygon points="70.08,-54.08 86.08,-54.08 64.32,-32.32 48.32,-32.32" fill="#cc6231"/><polygon points="86.08,-38.08 86.08,-54.08 64.32,-32.32 64.32,-16.32" fill="#944723"/><polygon points="48.32,-16.32 48.32,-32.32 64.32,-32.32 64.32,-16.32" fill="#ff7a3d"/><polygon points="86.08,-54.08 118.08,-54.08 96.32,-32.32 64.32,-32.32" fill="#cca752"/><polygon points="118.08,-38.08 118.08,-54.08 96.32,-32.32 96.32,-16.32" fill="#94793b"/><polygon points="64.32,-16.32 64.32,-32.32 96.32,-32.32 96.32,-16.32" fill="#ffd166"/><polygon points="118.08,-54.08 134.08,-54.08 112.32,-32.32 96.32,-32.32" fill="#cc6231"/><polygon points="134.08,-38.08 134.08,-54.08 112.32,-32.32 112.32,-16.32" fill="#944723"/><polygon points="96.32,-16.32 96.32,-32.32 112.32,-32.32 112.32,-16.32" fill="#ff7a3d"/></g></svg>